{
    "asset" : {
        "generator" : "Khronos glTF Blender I/O v3.2.40",
        "version" : "2.0"
    },
    "scene" : 0,
    "scenes" : [
        {
            "name" : "Scene",
            "nodes" : [
                0,
                1,
                2
            ]
        }
    ],
    "nodes" : [
        {
            "mesh" : 0,
            "name" : "Dish",
            "rotation" : [
                0.002860334701836109,
                -0.0025880844332277775,
                -0.7415081858634949,
                0.6709327697753906
            ],
            "scale" : [
                1.4690066576004028,
                0.7812472581863403,
                1.4690067768096924
            ],
            "translation" : [
                -1.443200945854187,
                4.370019912719727,
                -0.020853301510214806
            ]
        },
        {
            "mesh" : 1,
            "name" : "Solar Panel",
            "rotation" : [
                0.002727343002334237,
                -0.00272734253667295,
                -0.7071014642715454,
                0.707101583480835
            ],
            "translation" : [
                -1.5971755981445312,
                1.3296434879302979,
                0
            ]
        },
        {
            "mesh" : 2,
            "name" : "Main Body",
            "rotation" : [
                0.002727343002334237,
                -0.00272734253667295,
                -0.7071014642715454,
                0.707101583480835
            ],
            "translation" : [
                -1.5971755981445312,
                1.3296434879302979,
                0
            ]
        }
    ],
    "animations" : [
        {
            "channels" : [
                {
                    "sampler" : 0,
                    "target" : {
                        "node" : 0,
                        "path" : "translation"
                    }
                },
                {
                    "sampler" : 1,
                    "target" : {
                        "node" : 0,
                        "path" : "rotation"
                    }
                },
                {
                    "sampler" : 2,
                    "target" : {
                        "node" : 0,
                        "path" : "scale"
                    }
                }
            ],
            "name" : "Dish|Dish|Sphere.004Action",
            "samplers" : [
                {
                    "input" : 24,
                    "interpolation" : "LINEAR",
                    "output" : 25
                },
                {
                    "input" : 24,
                    "interpolation" : "LINEAR",
                    "output" : 26
                },
                {
                    "input" : 24,
                    "interpolation" : "LINEAR",
                    "output" : 27
                }
            ]
        },
        {
            "channels" : [
                {
                    "sampler" : 0,
                    "target" : {
                        "node" : 1,
                        "path" : "translation"
                    }
                },
                {
                    "sampler" : 1,
                    "target" : {
                        "node" : 1,
                        "path" : "rotation"
                    }
                },
                {
                    "sampler" : 2,
                    "target" : {
                        "node" : 1,
                        "path" : "scale"
                    }
                }
            ],
            "name" : "Solar Panel|Solar Panel|Sphere.004Action",
            "samplers" : [
                {
                    "input" : 24,
                    "interpolation" : "LINEAR",
                    "output" : 28
                },
                {
                    "input" : 24,
                    "interpolation" : "LINEAR",
                    "output" : 29
                },
                {
                    "input" : 24,
                    "interpolation" : "LINEAR",
                    "output" : 30
                }
            ]
        },
        {
            "channels" : [
                {
                    "sampler" : 0,
                    "target" : {
                        "node" : 2,
                        "path" : "translation"
                    }
                },
                {
                    "sampler" : 1,
                    "target" : {
                        "node" : 2,
                        "path" : "rotation"
                    }
                },
                {
                    "sampler" : 2,
                    "target" : {
                        "node" : 2,
                        "path" : "scale"
                    }
                }
            ],
            "name" : "Main Body|Main Body|Sphere.004Action",
            "samplers" : [
                {
                    "input" : 24,
                    "interpolation" : "LINEAR",
                    "output" : 31
                },
                {
                    "input" : 24,
                    "interpolation" : "LINEAR",
                    "output" : 32
                },
                {
                    "input" : 24,
                    "interpolation" : "LINEAR",
                    "output" : 33
                }
            ]
        }
    ],
    "materials" : [
        {
            "doubleSided" : true,
            "name" : "Material.004",
            "pbrMetallicRoughness" : {
                "baseColorFactor" : [
                    0.800000011920929,
                    0.800000011920929,
                    0.800000011920929,
                    1
                ],
                "metallicFactor" : 0,
                "roughnessFactor" : 0.5
            }
        },
        {
            "doubleSided" : true,
            "name" : "Material.001",
            "pbrMetallicRoughness" : {
                "baseColorFactor" : [
                    0,
                    0.0018794155912473798,
                    0.8000000715255737,
                    1
                ],
                "metallicFactor" : 0.8270676732063293,
                "roughnessFactor" : 0.1654135286808014
            }
        },
        {
            "doubleSided" : true,
            "name" : "Material.002",
            "pbrMetallicRoughness" : {
                "baseColorFactor" : [
                    0.800000011920929,
                    0.800000011920929,
                    0.800000011920929,
                    1
                ],
                "metallicFactor" : 0,
                "roughnessFactor" : 0.4000000059604645
            }
        },
        {
            "doubleSided" : true,
            "name" : "Material.007",
            "pbrMetallicRoughness" : {
                "baseColorFactor" : [
                    0.800000011920929,
                    0.800000011920929,
                    0.800000011920929,
                    1
                ],
                "metallicFactor" : 0.5637583136558533,
                "roughnessFactor" : 0.3791950047016144
            }
        }
    ],
    "meshes" : [
        {
            "name" : "Sphere.004",
            "primitives" : [
                {
                    "attributes" : {
                        "POSITION" : 0,
                        "NORMAL" : 1,
                        "TEXCOORD_0" : 2
                    },
                    "indices" : 3,
                    "material" : 0
                },
                {
                    "attributes" : {
                        "POSITION" : 4,
                        "NORMAL" : 5,
                        "TEXCOORD_0" : 6
                    },
                    "indices" : 7,
                    "material" : 1
                }
            ]
        },
        {
            "name" : "Cube.001",
            "primitives" : [
                {
                    "attributes" : {
                        "POSITION" : 8,
                        "NORMAL" : 9,
                        "TEXCOORD_0" : 10
                    },
                    "indices" : 11,
                    "material" : 1
                },
                {
                    "attributes" : {
                        "POSITION" : 12,
                        "NORMAL" : 13,
                        "TEXCOORD_0" : 14
                    },
                    "indices" : 15,
                    "material" : 2
                },
                {
                    "attributes" : {
                        "POSITION" : 16,
                        "NORMAL" : 17,
                        "TEXCOORD_0" : 18
                    },
                    "indices" : 19,
                    "material" : 3
                }
            ]
        },
        {
            "name" : "Cube.004",
            "primitives" : [
                {
                    "attributes" : {
                        "POSITION" : 20,
                        "NORMAL" : 21,
                        "TEXCOORD_0" : 22
                    },
                    "indices" : 23,
                    "material" : 3
                }
            ]
        }
    ],
    "accessors" : [
        {
            "bufferView" : 0,
            "componentType" : 5126,
            "count" : 42590,
            "max" : [
                0.8936721682548523,
                1.4882941246032715,
                0.9179622530937195
            ],
            "min" : [
                -0.9422524571418762,
                0.14716289937496185,
                -0.9179620742797852
            ],
            "type" : "VEC3"
        },
        {
            "bufferView" : 1,
            "componentType" : 5126,
            "count" : 42590,
            "type" : "VEC3"
        },
        {
            "bufferView" : 2,
            "componentType" : 5126,
            "count" : 42590,
            "type" : "VEC2"
        },
        {
            "bufferView" : 3,
            "componentType" : 5123,
            "count" : 87552,
            "type" : "SCALAR"
        },
        {
            "bufferView" : 4,
            "componentType" : 5126,
            "count" : 75473,
            "max" : [
                0.13227978348731995,
                1.9091740846633911,
                0.15268537402153015
            ],
            "min" : [
                -0.14647626876831055,
                1.4220993518829346,
                -0.12429466843605042
            ],
            "type" : "VEC3"
        },
        {
            "bufferView" : 5,
            "componentType" : 5126,
            "count" : 75473,
            "type" : "VEC3"
        },
        {
            "bufferView" : 6,
            "componentType" : 5126,
            "count" : 75473,
            "type" : "VEC2"
        },
        {
            "bufferView" : 7,
            "componentType" : 5125,
            "count" : 153600,
            "type" : "SCALAR"
        },
        {
            "bufferView" : 8,
            "componentType" : 5126,
            "count" : 512,
            "max" : [
                1.202627182006836,
                0.07560135424137115,
                7.438680648803711
            ],
            "min" : [
                -1.202627182006836,
                -0.07560135424137115,
                -7.438680648803711
            ],
            "type" : "VEC3"
        },
        {
            "bufferView" : 9,
            "componentType" : 5126,
            "count" : 512,
            "type" : "VEC3"
        },
        {
            "bufferView" : 10,
            "componentType" : 5126,
            "count" : 512,
            "type" : "VEC2"
        },
        {
            "bufferView" : 11,
            "componentType" : 5123,
            "count" : 768,
            "type" : "SCALAR"
        },
        {
            "bufferView" : 12,
            "componentType" : 5126,
            "count" : 3021,
            "max" : [
                1.2659233808517456,
                0.3017334043979645,
                7.509788990020752
            ],
            "min" : [
                -3.1780245304107666,
                -0.07560135424137115,
                -7.509788990020752
            ],
            "type" : "VEC3"
        },
        {
            "bufferView" : 13,
            "componentType" : 5126,
            "count" : 3021,
            "type" : "VEC3"
        },
        {
            "bufferView" : 14,
            "componentType" : 5126,
            "count" : 3021,
            "type" : "VEC2"
        },
        {
            "bufferView" : 15,
            "componentType" : 5123,
            "count" : 7176,
            "type" : "SCALAR"
        },
        {
            "bufferView" : 16,
            "componentType" : 5126,
            "count" : 143,
            "max" : [
                -1.2469159364700317,
                0.28949227929115295,
                0.3251612186431885
            ],
            "min" : [
                -3.1028053760528564,
                -0.1083870679140091,
                -0.3251612186431885
            ],
            "type" : "VEC3"
        },
        {
            "bufferView" : 17,
            "componentType" : 5126,
            "count" : 143,
            "type" : "VEC3"
        },
        {
            "bufferView" : 18,
            "componentType" : 5126,
            "count" : 143,
            "type" : "VEC2"
        },
        {
            "bufferView" : 19,
            "componentType" : 5123,
            "count" : 336,
            "type" : "SCALAR"
        },
        {
            "bufferView" : 20,
            "componentType" : 5126,
            "count" : 22869,
            "max" : [
                1.0045093297958374,
                0.9988875389099121,
                1.6978480815887451
            ],
            "min" : [
                -1.2469161748886108,
                -0.9988875389099121,
                -1.6978480815887451
            ],
            "type" : "VEC3"
        },
        {
            "bufferView" : 21,
            "componentType" : 5126,
            "count" : 22869,
            "type" : "VEC3"
        },
        {
            "bufferView" : 22,
            "componentType" : 5126,
            "count" : 22869,
            "type" : "VEC2"
        },
        {
            "bufferView" : 23,
            "componentType" : 5123,
            "count" : 122880,
            "type" : "SCALAR"
        },
        {
            "bufferView" : 24,
            "componentType" : 5126,
            "count" : 2,
            "max" : [
                0.08333333333333333
            ],
            "min" : [
                0.041666666666666664
            ],
            "type" : "SCALAR"
        },
        {
            "bufferView" : 25,
            "componentType" : 5126,
            "count" : 2,
            "type" : "VEC3"
        },
        {
            "bufferView" : 26,
            "componentType" : 5126,
            "count" : 2,
            "type" : "VEC4"
        },
        {
            "bufferView" : 27,
            "componentType" : 5126,
            "count" : 2,
            "type" : "VEC3"
        },
        {
            "bufferView" : 28,
            "componentType" : 5126,
            "count" : 2,
            "type" : "VEC3"
        },
        {
            "bufferView" : 29,
            "componentType" : 5126,
            "count" : 2,
            "type" : "VEC4"
        },
        {
            "bufferView" : 30,
            "componentType" : 5126,
            "count" : 2,
            "type" : "VEC3"
        },
        {
            "bufferView" : 31,
            "componentType" : 5126,
            "count" : 2,
            "type" : "VEC3"
        },
        {
            "bufferView" : 32,
            "componentType" : 5126,
            "count" : 2,
            "type" : "VEC4"
        },
        {
            "bufferView" : 33,
            "componentType" : 5126,
            "count" : 2,
            "type" : "VEC3"
        }
    ],
    "bufferViews" : [
        {
            "buffer" : 0,
            "byteLength" : 511080,
            "byteOffset" : 0
        },
        {
            "buffer" : 0,
            "byteLength" : 511080,
            "byteOffset" : 511080
        },
        {
            "buffer" : 0,
            "byteLength" : 340720,
            "byteOffset" : 1022160
        },
        {
            "buffer" : 0,
            "byteLength" : 175104,
            "byteOffset" : 1362880
        },
        {
            "buffer" : 0,
            "byteLength" : 905676,
            "byteOffset" : 1537984
        },
        {
            "buffer" : 0,
            "byteLength" : 905676,
            "byteOffset" : 2443660
        },
        {
            "buffer" : 0,
            "byteLength" : 603784,
            "byteOffset" : 3349336
        },
        {
            "buffer" : 0,
            "byteLength" : 614400,
            "byteOffset" : 3953120
        },
        {
            "buffer" : 0,
            "byteLength" : 6144,
            "byteOffset" : 4567520
        },
        {
            "buffer" : 0,
            "byteLength" : 6144,
            "byteOffset" : 4573664
        },
        {
            "buffer" : 0,
            "byteLength" : 4096,
            "byteOffset" : 4579808
        },
        {
            "buffer" : 0,
            "byteLength" : 1536,
            "byteOffset" : 4583904
        },
        {
            "buffer" : 0,
            "byteLength" : 36252,
            "byteOffset" : 4585440
        },
        {
            "buffer" : 0,
            "byteLength" : 36252,
            "byteOffset" : 4621692
        },
        {
            "buffer" : 0,
            "byteLength" : 24168,
            "byteOffset" : 4657944
        },
        {
            "buffer" : 0,
            "byteLength" : 14352,
            "byteOffset" : 4682112
        },
        {
            "buffer" : 0,
            "byteLength" : 1716,
            "byteOffset" : 4696464
        },
        {
            "buffer" : 0,
            "byteLength" : 1716,
            "byteOffset" : 4698180
        },
        {
            "buffer" : 0,
            "byteLength" : 1144,
            "byteOffset" : 4699896
        },
        {
            "buffer" : 0,
            "byteLength" : 672,
            "byteOffset" : 4701040
        },
        {
            "buffer" : 0,
            "byteLength" : 274428,
            "byteOffset" : 4701712
        },
        {
            "buffer" : 0,
            "byteLength" : 274428,
            "byteOffset" : 4976140
        },
        {
            "buffer" : 0,
            "byteLength" : 182952,
            "byteOffset" : 5250568
        },
        {
            "buffer" : 0,
            "byteLength" : 245760,
            "byteOffset" : 5433520
        },
        {
            "buffer" : 0,
            "byteLength" : 8,
            "byteOffset" : 5679280
        },
        {
            "buffer" : 0,
            "byteLength" : 24,
            "byteOffset" : 5679288
        },
        {
            "buffer" : 0,
            "byteLength" : 32,
            "byteOffset" : 5679312
        },
        {
            "buffer" : 0,
            "byteLength" : 24,
            "byteOffset" : 5679344
        },
        {
            "buffer" : 0,
            "byteLength" : 24,
            "byteOffset" : 5679368
        },
        {
            "buffer" : 0,
            "byteLength" : 32,
            "byteOffset" : 5679392
        },
        {
            "buffer" : 0,
            "byteLength" : 24,
            "byteOffset" : 5679424
        },
        {
            "buffer" : 0,
            "byteLength" : 24,
            "byteOffset" : 5679448
        },
        {
            "buffer" : 0,
            "byteLength" : 32,
            "byteOffset" : 5679472
        },
        {
            "buffer" : 0,
            "byteLength" : 24,
            "byteOffset" : 5679504
        }
    ],
    "buffers" : [
        {
            "byteLength" : 5679528,
            "uri" : "untitled.bin"
        }
    ]
}
